999
"DXF R12 Output" (www.mydxf.blogspot.com)
 0 
SECTION
 2 
HEADER
 9 
$ACADVER
 1 
AC1009
 9 
$EXTMIN
 10 
 0 
 20 
 0 
 9 
$EXTMAX
 10 
 8.5 
 20 
 11 
 0 
ENDSEC
 0 
SECTION
 2 
ENTITIES
0
POLYLINE
8
Layer 1
62
7
70
0
10
0.000000
20
0.000000
66
1
0
VERTEX
8
Layer 1
10
102.363180
20
117.785400
70
0
0
VERTEX
8
Layer 1
10
98.172491
20
123.860340
70
0
0
VERTEX
8
Layer 1
10
92.698633
20
131.730700
70
0
0
VERTEX
8
Layer 1
10
87.299461
20
139.451440
70
0
0
VERTEX
8
Layer 1
10
85.076509
20
142.726040
70
0
0
VERTEX
8
Layer 1
10
85.167589
20
142.847840
70
0
0
VERTEX
8
Layer 1
10
87.235014
20
141.328100
70
0
0
VERTEX
8
Layer 1
10
93.844390
20
136.131620
70
0
0
VERTEX
8
Layer 1
10
100.828680
20
130.632630
70
0
0
VERTEX
8
Layer 1
10
102.284260
20
133.189140
70
0
0
VERTEX
8
Layer 1
10
107.514560
20
142.706870
70
0
0
VERTEX
8
Layer 1
10
120.895290
20
153.481960
70
0
0
VERTEX
8
Layer 1
10
133.050760
20
162.737580
70
0
0
VERTEX
8
Layer 1
10
137.766604
20
166.146474
70
0
0
VERTEX
8
Layer 1
10
139.157600
20
166.932190
70
0
0
VERTEX
8
Layer 1
10
138.252050
20
165.263920
70
0
0
VERTEX
8
Layer 1
10
131.489030
20
154.570380
70
0
0
VERTEX
8
Layer 1
10
129.354600
20
151.158190
70
0
0
VERTEX
8
Layer 1
10
126.753480
20
149.011800
70
0
0
VERTEX
8
Layer 1
10
122.673280
20
145.659190
70
0
0
VERTEX
8
Layer 1
10
118.753140
20
142.451120
70
0
0
VERTEX
8
Layer 1
10
113.472490
20
138.126050
70
0
0
VERTEX
8
Layer 1
10
106.473900
20
132.383060
70
0
0
VERTEX
8
Layer 1
10
102.314890
20
128.963290
70
0
0
VERTEX
8
Layer 1
10
102.588120
20
128.719340
70
0
0
VERTEX
8
Layer 1
10
103.925787
20
127.603726
70
0
0
VERTEX
8
Layer 1
10
104.523550
20
127.290740
70
0
0
VERTEX
8
Layer 1
10
108.056830
20
130.189710
70
0
0
VERTEX
8
Layer 1
10
121.777170
20
141.352580
70
0
0
VERTEX
8
Layer 1
10
123.141071
20
142.384259
70
0
0
VERTEX
8
Layer 1
10
123.656550
20
142.648200
70
0
0
VERTEX
8
Layer 1
10
121.672630
20
139.582860
70
0
0
VERTEX
8
Layer 1
10
117.059160
20
132.996510
70
0
0
VERTEX
8
Layer 1
10
111.728220
20
125.346590
70
0
0
VERTEX
8
Layer 1
10
105.571860
20
116.458380
70
0
0
VERTEX
8
Layer 1
10
104.412150
20
115.006400
70
0
0
VERTEX
8
Layer 1
10
102.363180
20
117.785400
70
0
0
VERTEX
8
Layer 1
10
102.363180
20
117.785400
70
0
0
SEQEND
8
Layer 1
0
POLYLINE
8
Layer 1
62
7
70
0
10
0.000000
20
0.000000
66
1
0
VERTEX
8
Layer 1
10
107.215440
20
119.237660
70
0
0
VERTEX
8
Layer 1
10
111.193890
20
124.979410
70
0
0
VERTEX
8
Layer 1
10
113.916500
20
128.886930
70
0
0
VERTEX
8
Layer 1
10
119.886980
20
137.454380
70
0
0
VERTEX
8
Layer 1
10
123.279050
20
142.186920
70
0
0
VERTEX
8
Layer 1
10
123.563907
20
142.547286
70
0
0
VERTEX
8
Layer 1
10
123.336350
20
142.339070
70
0
0
VERTEX
8
Layer 1
10
121.891640
20
141.134630
70
0
0
VERTEX
8
Layer 1
10
115.415360
20
135.915950
70
0
0
VERTEX
8
Layer 1
10
112.388170
20
133.448360
70
0
0
VERTEX
8
Layer 1
10
108.059480
20
129.887000
70
0
0
VERTEX
8
Layer 1
10
104.418460
20
126.997650
70
0
0
VERTEX
8
Layer 1
10
103.171641
20
127.915131
70
0
0
VERTEX
8
Layer 1
10
102.136720
20
128.973860
70
0
0
VERTEX
8
Layer 1
10
103.440921
20
130.189539
70
0
0
VERTEX
8
Layer 1
10
109.787350
20
135.413090
70
0
0
VERTEX
8
Layer 1
10
117.507700
20
141.743240
70
0
0
VERTEX
8
Layer 1
10
124.963340
20
147.857150
70
0
0
VERTEX
8
Layer 1
10
129.131030
20
151.268260
70
0
0
VERTEX
8
Layer 1
10
131.993020
20
155.836200
70
0
0
VERTEX
8
Layer 1
10
138.580430
20
166.186260
70
0
0
VERTEX
8
Layer 1
10
138.954110
20
166.684980
70
0
0
VERTEX
8
Layer 1
10
137.858290
20
165.911080
70
0
0
VERTEX
8
Layer 1
10
126.823560
20
157.762810
70
0
0
VERTEX
8
Layer 1
10
117.626601
20
150.591997
70
0
0
VERTEX
8
Layer 1
10
108.988910
20
143.649830
70
0
0
VERTEX
8
Layer 1
10
107.643840
20
142.542250
70
0
0
VERTEX
8
Layer 1
10
106.185340
20
139.860730
70
0
0
VERTEX
8
Layer 1
10
100.974930
20
130.469960
70
0
0
VERTEX
8
Layer 1
10
100.815247
20
130.424448
70
0
0
VERTEX
8
Layer 1
10
100.517822
20
130.567040
70
0
0
VERTEX
8
Layer 1
10
98.875185
20
131.826350
70
0
0
VERTEX
8
Layer 1
10
87.866286
20
140.527370
70
0
0
VERTEX
8
Layer 1
10
85.475048
20
142.448800
70
0
0
VERTEX
8
Layer 1
10
85.253253
20
142.651389
70
0
0
VERTEX
8
Layer 1
10
85.534938
20
142.296990
70
0
0
VERTEX
8
Layer 1
10
87.868175
20
139.050400
70
0
0
VERTEX
8
Layer 1
10
90.603614
20
135.142890
70
0
0
VERTEX
8
Layer 1
10
93.058952
20
131.620620
70
0
0
VERTEX
8
Layer 1
10
97.193316
20
125.676800
70
0
0
VERTEX
8
Layer 1
10
100.929620
20
120.283340
70
0
0
VERTEX
8
Layer 1
10
103.297260
20
116.843520
70
0
0
VERTEX
8
Layer 1
10
104.418420
20
115.219880
70
0
0
VERTEX
8
Layer 1
10
104.643210
20
115.522670
70
0
0
VERTEX
8
Layer 1
10
107.215450
20
119.237660
70
0
0
VERTEX
8
Layer 1
10
107.215440
20
119.237660
70
0
0
SEQEND
8
Layer 1
0
POLYLINE
8
Layer 1
62
7
70
0
10
0.000000
20
0.000000
66
1
0
VERTEX
8
Layer 1
10
98.126931
20
136.151990
70
0
0
VERTEX
8
Layer 1
10
92.100776
20
141.030140
70
0
0
VERTEX
8
Layer 1
10
84.628150
20
147.084700
70
0
0
VERTEX
8
Layer 1
10
80.343846
20
150.555570
70
0
0
VERTEX
8
Layer 1
10
79.297687
20
151.618041
70
0
0
VERTEX
8
Layer 1
10
77.358836
20
154.636580
70
0
0
VERTEX
8
Layer 1
10
70.496628
20
165.467390
70
0
0
VERTEX
8
Layer 1
10
69.726652
20
166.736626
70
0
0
VERTEX
8
Layer 1
10
69.643243
20
166.990748
70
0
0
VERTEX
8
Layer 1
10
69.726018
20
167.063420
70
0
0
VERTEX
8
Layer 1
10
75.162826
20
163.268130
70
0
0
VERTEX
8
Layer 1
10
85.065855
20
155.922765
70
0
0
VERTEX
8
Layer 1
10
94.890559
20
148.354500
70
0
0
VERTEX
8
Layer 1
10
97.331618
20
146.420560
70
0
0
VERTEX
8
Layer 1
10
103.690470
20
141.136960
70
0
0
VERTEX
8
Layer 1
10
101.998196
20
137.792655
70
0
0
VERTEX
8
Layer 1
10
100.169460
20
134.592710
70
0
0
VERTEX
8
Layer 1
10
98.126931
20
136.151990
70
0
0
VERTEX
8
Layer 1
10
98.126931
20
136.151990
70
0
0
SEQEND
8
Layer 1
0
POLYLINE
8
Layer 1
62
7
70
0
10
0.000000
20
0.000000
66
1
0
VERTEX
8
Layer 1
10
101.853850
20
138.016810
70
0
0
VERTEX
8
Layer 1
10
103.489760
20
141.138030
70
0
0
VERTEX
8
Layer 1
10
95.388732
20
147.646270
70
0
0
VERTEX
8
Layer 1
10
82.832249
20
157.298116
70
0
0
VERTEX
8
Layer 1
10
71.725418
20
165.389850
70
0
0
VERTEX
8
Layer 1
10
70.131258
20
166.558060
70
0
0
VERTEX
8
Layer 1
10
69.882170
20
166.788230
70
0
0
VERTEX
8
Layer 1
10
70.088814
20
166.513060
70
0
0
VERTEX
8
Layer 1
10
77.803352
20
154.379290
70
0
0
VERTEX
8
Layer 1
10
79.637622
20
151.436430
70
0
0
VERTEX
8
Layer 1
10
83.477958
20
148.328950
70
0
0
VERTEX
8
Layer 1
10
98.327968
20
136.278110
70
0
0
VERTEX
8
Layer 1
10
100.079660
20
134.931450
70
0
0
VERTEX
8
Layer 1
10
101.853850
20
138.016810
70
0
0
VERTEX
8
Layer 1
10
101.853850
20
138.016810
70
0
0
SEQEND
8
Layer 1
0
POLYLINE
8
Layer 1
62
7
70
0
10
0.000000
20
0.000000
66
1
0
VERTEX
8
Layer 1
10
104.306060
20
143.947350
70
0
0
VERTEX
8
Layer 1
10
106.526315
20
148.384184
70
0
0
VERTEX
8
Layer 1
10
110.700830
20
155.959820
70
0
0
VERTEX
8
Layer 1
10
112.193220
20
158.560030
70
0
0
VERTEX
8
Layer 1
10
114.252660
20
160.304110
70
0
0
VERTEX
8
Layer 1
10
125.619769
20
169.715400
70
0
0
VERTEX
8
Layer 1
10
136.787070
20
178.419110
70
0
0
VERTEX
8
Layer 1
10
144.500715
20
184.133999
70
0
0
VERTEX
8
Layer 1
10
148.634910
20
186.986220
70
0
0
VERTEX
8
Layer 1
10
148.743280
20
186.827080
70
0
0
VERTEX
8
Layer 1
10
147.311820
20
183.827640
70
0
0
VERTEX
8
Layer 1
10
142.621830
20
174.262240
70
0
0
VERTEX
8
Layer 1
10
142.147990
20
173.260790
70
0
0
VERTEX
8
Layer 1
10
141.038420
20
172.446070
70
0
0
VERTEX
8
Layer 1
10
122.589090
20
158.243240
70
0
0
VERTEX
8
Layer 1
10
111.835140
20
149.691250
70
0
0
VERTEX
8
Layer 1
10
105.125361
20
144.346974
70
0
0
VERTEX
8
Layer 1
10
104.378014
20
143.833180
70
0
0
VERTEX
8
Layer 1
10
104.306060
20
143.947350
70
0
0
VERTEX
8
Layer 1
10
104.306060
20
143.947350
70
0
0
SEQEND
8
Layer 1
0
POLYLINE
8
Layer 1
62
7
70
0
10
0.000000
20
0.000000
66
1
0
VERTEX
8
Layer 1
10
107.095840
20
146.208190
70
0
0
VERTEX
8
Layer 1
10
112.946700
20
150.899330
70
0
0
VERTEX
8
Layer 1
10
128.122935
20
162.898369
70
0
0
VERTEX
8
Layer 1
10
139.952310
20
171.969580
70
0
0
VERTEX
8
Layer 1
10
141.971750
20
173.461020
70
0
0
VERTEX
8
Layer 1
10
142.331290
20
174.252280
70
0
0
VERTEX
8
Layer 1
10
147.155210
20
184.096870
70
0
0
VERTEX
8
Layer 1
10
148.271270
20
186.435870
70
0
0
VERTEX
8
Layer 1
10
143.983082
20
183.426206
70
0
0
VERTEX
8
Layer 1
10
136.687440
20
178.014960
70
0
0
VERTEX
8
Layer 1
10
127.525160
20
170.909649
70
0
0
VERTEX
8
Layer 1
10
119.347450
20
164.242090
70
0
0
VERTEX
8
Layer 1
10
113.022987
20
158.909637
70
0
0
VERTEX
8
Layer 1
10
112.222122
20
158.086461
70
0
0
VERTEX
8
Layer 1
10
111.824820
20
157.432230
70
0
0
VERTEX
8
Layer 1
10
108.365979
20
151.304491
70
0
0
VERTEX
8
Layer 1
10
105.350770
20
145.599610
70
0
0
VERTEX
8
Layer 1
10
104.614180
20
144.223740
70
0
0
VERTEX
8
Layer 1
10
104.576330
20
144.134755
70
0
0
VERTEX
8
Layer 1
10
104.755980
20
144.288140
70
0
0
VERTEX
8
Layer 1
10
107.095840
20
146.208160
70
0
0
VERTEX
8
Layer 1
10
107.095840
20
146.208190
70
0
0
SEQEND
8
Layer 1
0
POLYLINE
8
Layer 1
62
7
70
0
10
0.000000
20
0.000000
66
1
0
VERTEX
8
Layer 1
10
101.366830
20
146.127190
70
0
0
VERTEX
8
Layer 1
10
91.425076
20
154.249336
70
0
0
VERTEX
8
Layer 1
10
82.013898
20
161.704560
70
0
0
VERTEX
8
Layer 1
10
77.055890
20
165.519400
70
0
0
VERTEX
8
Layer 1
10
70.131258
20
170.762230
70
0
0
VERTEX
8
Layer 1
10
66.693850
20
173.320740
70
0
0
VERTEX
8
Layer 1
10
66.154399
20
174.457330
70
0
0
VERTEX
8
Layer 1
10
61.849982
20
183.209290
70
0
0
VERTEX
8
Layer 1
10
60.068123
20
186.869140
70
0
0
VERTEX
8
Layer 1
10
60.186266
20
186.989898
70
0
0
VERTEX
8
Layer 1
10
60.811397
20
186.653928
70
0
0
VERTEX
8
Layer 1
10
65.206838
20
183.568570
70
0
0
VERTEX
8
Layer 1
10
74.146327
20
176.987329
70
0
0
VERTEX
8
Layer 1
10
82.884538
20
170.327030
70
0
0
VERTEX
8
Layer 1
10
84.827420
20
168.824350
70
0
0
VERTEX
8
Layer 1
10
87.119029
20
167.051680
70
0
0
VERTEX
8
Layer 1
10
90.058262
20
164.753770
70
0
0
VERTEX
8
Layer 1
10
99.686540
20
157.025300
70
0
0
VERTEX
8
Layer 1
10
99.426583
20
157.732509
70
0
0
VERTEX
8
Layer 1
10
98.581718
20
159.655813
70
0
0
VERTEX
8
Layer 1
10
96.428619
20
164.276510
70
0
0
VERTEX
8
Layer 1
10
95.986541
20
165.176980
70
0
0
VERTEX
8
Layer 1
10
96.313900
20
166.918220
70
0
0
VERTEX
8
Layer 1
10
97.419612
20
172.841400
70
0
0
VERTEX
8
Layer 1
10
98.197976
20
177.023350
70
0
0
VERTEX
8
Layer 1
10
99.807945
20
178.730180
70
0
0
VERTEX
8
Layer 1
10
101.417290
20
180.503550
70
0
0
VERTEX
8
Layer 1
10
99.954363
20
181.219000
70
0
0
VERTEX
8
Layer 1
10
98.492077
20
181.867940
70
0
0
VERTEX
8
Layer 1
10
97.946946
20
182.803550
70
0
0
VERTEX
8
Layer 1
10
95.173109
20
187.670850
70
0
0
VERTEX
8
Layer 1
10
94.777114
20
188.529426
70
0
0
VERTEX
8
Layer 1
10
94.826806
20
188.747380
70
0
0
VERTEX
8
Layer 1
10
97.093502
20
187.240640
70
0
0
VERTEX
8
Layer 1
10
99.274496
20
185.733890
70
0
0
VERTEX
8
Layer 1
10
101.067930
20
185.269210
70
0
0
VERTEX
8
Layer 1
10
106.815387
20
183.701814
70
0
0
VERTEX
8
Layer 1
10
109.173010
20
182.878860
70
0
0
VERTEX
8
Layer 1
10
110.108460
20
181.668390
70
0
0
VERTEX
8
Layer 1
10
110.937569
20
180.671944
70
0
0
VERTEX
8
Layer 1
10
112.071710
20
179.612400
70
0
0
VERTEX
8
Layer 1
10
113.333420
20
178.526450
70
0
0
VERTEX
8
Layer 1
10
113.603390
20
177.665570
70
0
0
VERTEX
8
Layer 1
10
113.850379
20
176.416379
70
0
0
VERTEX
8
Layer 1
10
113.786440
20
174.879600
70
0
0
VERTEX
8
Layer 1
10
113.697916
20
174.408854
70
0
0
VERTEX
8
Layer 1
10
113.546722
20
174.268589
70
0
0
VERTEX
8
Layer 1
10
112.924490
20
174.997520
70
0
0
VERTEX
8
Layer 1
10
112.386175
20
175.713248
70
0
0
VERTEX
8
Layer 1
10
111.679050
20
176.159590
70
0
0
VERTEX
8
Layer 1
10
110.896999
20
176.484089
70
0
0
VERTEX
8
Layer 1
10
109.918500
20
176.482240
70
0
0
VERTEX
8
Layer 1
10
108.196190
20
176.349810
70
0
0
VERTEX
8
Layer 1
10
107.487200
20
176.277010
70
0
0
VERTEX
8
Layer 1
10
106.827810
20
174.779710
70
0
0
VERTEX
8
Layer 1
10
106.168950
20
173.172330
70
0
0
VERTEX
8
Layer 1
10
109.573230
20
165.233460
70
0
0
VERTEX
8
Layer 1
10
110.881980
20
162.032120
70
0
0
VERTEX
8
Layer 1
10
109.227695
20
158.721669
70
0
0
VERTEX
8
Layer 1
10
105.359230
20
151.543430
70
0
0
VERTEX
8
Layer 1
10
102.903710
20
147.058040
70
0
0
VERTEX
8
Layer 1
10
102.017000
20
145.710150
70
0
0
VERTEX
8
Layer 1
10
101.366830
20
146.127170
70
0
0
VERTEX
8
Layer 1
10
101.366830
20
146.127190
70
0
0
SEQEND
8
Layer 1
0
POLYLINE
8
Layer 1
62
7
70
0
10
0.000000
20
0.000000
66
1
0
VERTEX
8
Layer 1
10
105.325050
20
151.983740
70
0
0
VERTEX
8
Layer 1
10
109.875514
20
160.452190
70
0
0
VERTEX
8
Layer 1
10
110.520366
20
161.801570
70
0
0
VERTEX
8
Layer 1
10
110.596440
20
162.235380
70
0
0
VERTEX
8
Layer 1
10
108.203380
20
167.751110
70
0
0
VERTEX
8
Layer 1
10
105.900220
20
173.171110
70
0
0
VERTEX
8
Layer 1
10
106.615090
20
174.919470
70
0
0
VERTEX
8
Layer 1
10
107.329970
20
176.503410
70
0
0
VERTEX
8
Layer 1
10
107.835620
20
176.571610
70
0
0
VERTEX
8
Layer 1
10
109.660990
20
176.711770
70
0
0
VERTEX
8
Layer 1
10
110.980700
20
176.783670
70
0
0
VERTEX
8
Layer 1
10
111.787840
20
176.408900
70
0
0
VERTEX
8
Layer 1
10
112.530371
20
175.991571
70
0
0
VERTEX
8
Layer 1
10
112.994180
20
175.390560
70
0
0
VERTEX
8
Layer 1
10
113.473890
20
174.840210
70
0
0
VERTEX
8
Layer 1
10
113.615010
20
175.758960
70
0
0
VERTEX
8
Layer 1
10
113.617684
20
176.593928
70
0
0
VERTEX
8
Layer 1
10
113.399700
20
177.464820
70
0
0
VERTEX
8
Layer 1
10
113.123750
20
178.345130
70
0
0
VERTEX
8
Layer 1
10
111.851210
20
179.446080
70
0
0
VERTEX
8
Layer 1
10
110.680394
20
180.546983
70
0
0
VERTEX
8
Layer 1
10
109.776630
20
181.647750
70
0
0
VERTEX
8
Layer 1
10
108.857210
20
182.820760
70
0
0
VERTEX
8
Layer 1
10
100.570670
20
185.120780
70
0
0
VERTEX
8
Layer 1
10
99.176706
20
185.470870
70
0
0
VERTEX
8
Layer 1
10
97.201593
20
186.833920
70
0
0
VERTEX
8
Layer 1
10
95.188150
20
188.196960
70
0
0
VERTEX
8
Layer 1
10
98.301409
20
182.693420
70
0
0
VERTEX
8
Layer 1
10
98.650741
20
182.088030
70
0
0
VERTEX
8
Layer 1
10
100.142060
20
181.438980
70
0
0
VERTEX
8
Layer 1
10
101.690730
20
180.624840
70
0
0
VERTEX
8
Layer 1
10
101.322016
20
180.051398
70
0
0
VERTEX
8
Layer 1
10
100.079770
20
178.640700
70
0
0
VERTEX
8
Layer 1
10
98.411470
20
176.821700
70
0
0
VERTEX
8
Layer 1
10
97.870080
20
173.896320
70
0
0
VERTEX
8
Layer 1
10
96.774312
20
168.104450
70
0
0
VERTEX
8
Layer 1
10
96.219940
20
165.237960
70
0
0
VERTEX
8
Layer 1
10
96.872506
20
163.901660
70
0
0
VERTEX
8
Layer 1
10
99.037283
20
159.239249
70
0
0
VERTEX
8
Layer 1
10
100.082250
20
156.652740
70
0
0
VERTEX
8
Layer 1
10
99.944397
20
156.581555
70
0
0
VERTEX
8
Layer 1
10
99.548400
20
156.856540
70
0
0
VERTEX
8
Layer 1
10
95.787271
20
159.872290
70
0
0
VERTEX
8
Layer 1
10
86.809582
20
166.956648
70
0
0
VERTEX
8
Layer 1
10
77.641928
20
173.997760
70
0
0
VERTEX
8
Layer 1
10
74.814102
20
176.150680
70
0
0
VERTEX
8
Layer 1
10
65.775110
20
182.825489
70
0
0
VERTEX
8
Layer 1
10
61.899295
20
185.585637
70
0
0
VERTEX
8
Layer 1
10
60.774021
20
186.350969
70
0
0
VERTEX
8
Layer 1
10
60.438772
20
186.527260
70
0
0
VERTEX
8
Layer 1
10
66.365851
20
174.603260
70
0
0
VERTEX
8
Layer 1
10
66.893807
20
173.502560
70
0
0
VERTEX
8
Layer 1
10
70.439104
20
170.860850
70
0
0
VERTEX
8
Layer 1
10
76.117956
20
166.572020
70
0
0
VERTEX
8
Layer 1
10
87.761597
20
157.506530
70
0
0
VERTEX
8
Layer 1
10
100.370480
20
147.265760
70
0
0
VERTEX
8
Layer 1
10
101.648515
20
146.252010
70
0
0
VERTEX
8
Layer 1
10
102.077220
20
146.073130
70
0
0
VERTEX
8
Layer 1
10
105.325050
20
151.983720
70
0
0
VERTEX
8
Layer 1
10
105.325050
20
151.983740
70
0
0
SEQEND
8
Layer 1
0
POLYLINE
8
Layer 1
62
7
70
0
10
0.000000
20
0.000000
66
1
0
VERTEX
8
Layer 1
10
117.258620
20
166.392250
70
0
0
VERTEX
8
Layer 1
10
121.458620
20
176.649980
70
0
0
VERTEX
8
Layer 1
10
122.652850
20
179.467160
70
0
0
VERTEX
8
Layer 1
10
127.695600
20
184.354940
70
0
0
VERTEX
8
Layer 1
10
143.416600
20
199.427291
70
0
0
VERTEX
8
Layer 1
10
152.028466
20
207.429209
70
0
0
VERTEX
8
Layer 1
10
153.999423
20
209.093367
70
0
0
VERTEX
8
Layer 1
10
154.469411
20
209.401899
70
0
0
VERTEX
8
Layer 1
10
154.621740
20
209.384506
70
0
0
VERTEX
8
Layer 1
10
153.315560
20
206.275008
70
0
0
VERTEX
8
Layer 1
10
151.383410
20
201.735752
70
0
0
VERTEX
8
Layer 1
10
149.386720
20
197.002710
70
0
0
VERTEX
8
Layer 1
10
147.641080
20
192.866360
70
0
0
VERTEX
8
Layer 1
10
147.403645
20
192.302409
70
0
0
VERTEX
8
Layer 1
10
146.902314
20
191.703158
70
0
0
VERTEX
8
Layer 1
10
142.565910
20
187.922410
70
0
0
VERTEX
8
Layer 1
10
138.480870
20
184.399050
70
0
0
VERTEX
8
Layer 1
10
134.146740
20
180.653890
70
0
0
VERTEX
8
Layer 1
10
128.367920
20
175.650290
70
0
0
VERTEX
8
Layer 1
10
122.190530
20
170.315270
70
0
0
VERTEX
8
Layer 1
10
118.273970
20
166.933900
70
0
0
VERTEX
8
Layer 1
10
117.511374
20
166.350370
70
0
0
VERTEX
8
Layer 1
10
117.321673
20
166.293350
70
0
0
VERTEX
8
Layer 1
10
117.258620
20
166.392250
70
0
0
VERTEX
8
Layer 1
10
117.258620
20
166.392250
70
0
0
SEQEND
8
Layer 1
0
POLYLINE
8
Layer 1
62
7
70
0
10
0.000000
20
0.000000
66
1
0
VERTEX
8
Layer 1
10
121.542920
20
170.099500
70
0
0
VERTEX
8
Layer 1
10
127.570840
20
175.307770
70
0
0
VERTEX
8
Layer 1
10
137.492630
20
183.901820
70
0
0
VERTEX
8
Layer 1
10
142.656030
20
188.362160
70
0
0
VERTEX
8
Layer 1
10
146.501080
20
191.664280
70
0
0
VERTEX
8
Layer 1
10
146.997651
20
192.178925
70
0
0
VERTEX
8
Layer 1
10
147.378400
20
192.930090
70
0
0
VERTEX
8
Layer 1
10
152.754330
20
205.643265
70
0
0
VERTEX
8
Layer 1
10
154.214110
20
208.945388
70
0
0
VERTEX
8
Layer 1
10
154.221121
20
209.001169
70
0
0
VERTEX
8
Layer 1
10
154.021800
20
208.826145
70
0
0
VERTEX
8
Layer 1
10
152.130860
20
207.124918
70
0
0
VERTEX
8
Layer 1
10
145.925105
20
201.424222
70
0
0
VERTEX
8
Layer 1
10
135.882740
20
191.888580
70
0
0
VERTEX
8
Layer 1
10
123.226880
20
179.611530
70
0
0
VERTEX
8
Layer 1
10
122.623744
20
178.688721
70
0
0
VERTEX
8
Layer 1
10
121.509970
20
176.144300
70
0
0
VERTEX
8
Layer 1
10
118.438940
20
168.715600
70
0
0
VERTEX
8
Layer 1
10
117.589840
20
166.734310
70
0
0
VERTEX
8
Layer 1
10
117.515749
20
166.563594
70
0
0
VERTEX
8
Layer 1
10
117.768440
20
166.801410
70
0
0
VERTEX
8
Layer 1
10
121.542920
20
170.099400
70
0
0
VERTEX
8
Layer 1
10
121.542920
20
170.099500
70
0
0
SEQEND
8
Layer 1
0
POLYLINE
8
Layer 1
62
7
70
0
10
0.000000
20
0.000000
66
1
0
VERTEX
8
Layer 1
10
90.402548
20
167.312690
70
0
0
VERTEX
8
Layer 1
10
75.461730
20
180.214340
70
0
0
VERTEX
8
Layer 1
10
71.127608
20
183.920020
70
0
0
VERTEX
8
Layer 1
10
63.490123
20
190.406420
70
0
0
VERTEX
8
Layer 1
10
61.659215
20
191.998540
70
0
0
VERTEX
8
Layer 1
10
60.568917
20
194.444020
70
0
0
VERTEX
8
Layer 1
10
54.996559
20
207.498926
70
0
0
VERTEX
8
Layer 1
10
54.353890
20
209.089303
70
0
0
VERTEX
8
Layer 1
10
54.308355
20
209.369585
70
0
0
VERTEX
8
Layer 1
10
54.405904
20
209.440667
70
0
0
VERTEX
8
Layer 1
10
59.271042
20
205.199966
70
0
0
VERTEX
8
Layer 1
10
74.515198
20
190.893110
70
0
0
VERTEX
8
Layer 1
10
79.895487
20
185.723710
70
0
0
VERTEX
8
Layer 1
10
83.822963
20
181.928570
70
0
0
VERTEX
8
Layer 1
10
85.630320
20
180.161850
70
0
0
VERTEX
8
Layer 1
10
86.399919
20
179.061130
70
0
0
VERTEX
8
Layer 1
10
88.113907
20
174.988520
70
0
0
VERTEX
8
Layer 1
10
91.552781
20
166.624730
70
0
0
VERTEX
8
Layer 1
10
91.492042
20
166.519197
70
0
0
VERTEX
8
Layer 1
10
91.294957
20
166.589788
70
0
0
VERTEX
8
Layer 1
10
90.402548
20
167.312690
70
0
0
VERTEX
8
Layer 1
10
90.402548
20
167.312690
70
0
0
SEQEND
8
Layer 1
0
POLYLINE
8
Layer 1
62
7
70
0
10
0.000000
20
0.000000
66
1
0
VERTEX
8
Layer 1
10
90.963811
20
167.531230
70
0
0
VERTEX
8
Layer 1
10
86.488029
20
178.180570
70
0
0
VERTEX
8
Layer 1
10
85.891070
20
179.556450
70
0
0
VERTEX
8
Layer 1
10
84.412712
20
180.993270
70
0
0
VERTEX
8
Layer 1
10
79.447130
20
185.775950
70
0
0
VERTEX
8
Layer 1
10
74.066841
20
190.948070
70
0
0
VERTEX
8
Layer 1
10
62.963059
20
201.434673
70
0
0
VERTEX
8
Layer 1
10
54.808472
20
208.816810
70
0
0
VERTEX
8
Layer 1
10
55.029225
20
208.115061
70
0
0
VERTEX
8
Layer 1
10
57.157120
20
203.111588
70
0
0
VERTEX
8
Layer 1
10
60.284987
20
195.774570
70
0
0
VERTEX
8
Layer 1
10
61.670418
20
192.614830
70
0
0
VERTEX
8
Layer 1
10
62.309909
20
191.750540
70
0
0
VERTEX
8
Layer 1
10
65.797134
20
188.799680
70
0
0
VERTEX
8
Layer 1
10
71.725418
20
183.762310
70
0
0
VERTEX
8
Layer 1
10
75.411912
20
180.606860
70
0
0
VERTEX
8
Layer 1
10
90.540661
20
167.540320
70
0
0
VERTEX
8
Layer 1
10
91.110019
20
167.063420
70
0
0
VERTEX
8
Layer 1
10
90.963811
20
167.531220
70
0
0
VERTEX
8
Layer 1
10
90.963811
20
167.531230
70
0
0
SEQEND
8
Layer 1
 0 
ENDSEC
 0 
EOF